<mxfile host="app.diagrams.net" modified="2022-12-15T07:31:02.816Z" agent="5.0 (Windows NT 10.0; Win64; x64) AppleWebKit/537.36 (KHTML, like Gecko) Chrome/108.0.0.0 Safari/537.36" version="20.6.0" etag="RcVxwsIA1pa0tB8zJU_A" type="github">
  <diagram id="NO_FO2ew2Y_-19ZOI-Uc" name="Page-1">
    <mxGraphModel dx="1203" dy="571" grid="1" gridSize="10" guides="1" tooltips="1" connect="1" arrows="1" fold="1" page="1" pageScale="1" pageWidth="850" pageHeight="1100" math="0" shadow="0">
      <root>
        <mxCell id="0" />
        <mxCell id="1" parent="0" />
        <mxCell id="4Gi6IG_BFEbsMWFQyG6_-1" value="SelfLearn 2.1" style="text;html=1;align=center;verticalAlign=middle;resizable=0;points=[];autosize=1;strokeColor=none;fillColor=none;" vertex="1" parent="1">
          <mxGeometry x="25" y="35" width="90" height="30" as="geometry" />
        </mxCell>
        <mxCell id="4Gi6IG_BFEbsMWFQyG6_-2" value="MySQL" style="shape=cylinder3;whiteSpace=wrap;html=1;boundedLbl=1;backgroundOutline=1;size=15;" vertex="1" parent="1">
          <mxGeometry x="610" y="30" width="60" height="80" as="geometry" />
        </mxCell>
        <mxCell id="4Gi6IG_BFEbsMWFQyG6_-3" value="Data Lake" style="ellipse;shape=cloud;whiteSpace=wrap;html=1;" vertex="1" parent="1">
          <mxGeometry x="730" y="35" width="120" height="80" as="geometry" />
        </mxCell>
        <mxCell id="4Gi6IG_BFEbsMWFQyG6_-4" value="To Store Analytics Such as Clicks &amp;amp; all." style="text;html=1;align=center;verticalAlign=middle;resizable=0;points=[];autosize=1;strokeColor=none;fillColor=none;" vertex="1" parent="1">
          <mxGeometry x="675" y="130" width="230" height="30" as="geometry" />
        </mxCell>
        <mxCell id="4Gi6IG_BFEbsMWFQyG6_-5" value="MDM" style="rounded=1;whiteSpace=wrap;html=1;" vertex="1" parent="1">
          <mxGeometry x="70" y="115" width="120" height="60" as="geometry" />
        </mxCell>
        <mxCell id="4Gi6IG_BFEbsMWFQyG6_-19" style="edgeStyle=orthogonalEdgeStyle;rounded=0;orthogonalLoop=1;jettySize=auto;html=1;exitX=0;exitY=0.5;exitDx=0;exitDy=0;entryX=1;entryY=0.5;entryDx=0;entryDy=0;" edge="1" parent="1" source="4Gi6IG_BFEbsMWFQyG6_-6" target="4Gi6IG_BFEbsMWFQyG6_-5">
          <mxGeometry relative="1" as="geometry" />
        </mxCell>
        <mxCell id="4Gi6IG_BFEbsMWFQyG6_-22" style="edgeStyle=orthogonalEdgeStyle;rounded=0;orthogonalLoop=1;jettySize=auto;html=1;exitX=1;exitY=0.5;exitDx=0;exitDy=0;" edge="1" parent="1" source="4Gi6IG_BFEbsMWFQyG6_-6">
          <mxGeometry relative="1" as="geometry">
            <mxPoint x="570.0000000000002" y="280" as="targetPoint" />
          </mxGeometry>
        </mxCell>
        <mxCell id="4Gi6IG_BFEbsMWFQyG6_-6" value="UAM" style="rounded=1;whiteSpace=wrap;html=1;" vertex="1" parent="1">
          <mxGeometry x="300" y="110" width="120" height="60" as="geometry" />
        </mxCell>
        <mxCell id="4Gi6IG_BFEbsMWFQyG6_-9" style="edgeStyle=orthogonalEdgeStyle;rounded=0;orthogonalLoop=1;jettySize=auto;html=1;exitX=0.5;exitY=0.5;exitDx=0;exitDy=0;exitPerimeter=0;entryX=0;entryY=0.5;entryDx=0;entryDy=0;" edge="1" parent="1" source="4Gi6IG_BFEbsMWFQyG6_-7" target="4Gi6IG_BFEbsMWFQyG6_-8">
          <mxGeometry relative="1" as="geometry" />
        </mxCell>
        <mxCell id="4Gi6IG_BFEbsMWFQyG6_-7" value="Actor" style="shape=umlActor;verticalLabelPosition=bottom;verticalAlign=top;html=1;outlineConnect=0;" vertex="1" parent="1">
          <mxGeometry x="40" y="280" width="30" height="60" as="geometry" />
        </mxCell>
        <mxCell id="4Gi6IG_BFEbsMWFQyG6_-15" value="" style="edgeStyle=orthogonalEdgeStyle;rounded=0;orthogonalLoop=1;jettySize=auto;html=1;entryX=0.25;entryY=1;entryDx=0;entryDy=0;" edge="1" parent="1" source="4Gi6IG_BFEbsMWFQyG6_-8" target="4Gi6IG_BFEbsMWFQyG6_-6">
          <mxGeometry relative="1" as="geometry">
            <mxPoint x="340.0000000000002" y="310" as="targetPoint" />
          </mxGeometry>
        </mxCell>
        <mxCell id="4Gi6IG_BFEbsMWFQyG6_-8" value="Application" style="rounded=1;whiteSpace=wrap;html=1;" vertex="1" parent="1">
          <mxGeometry x="140" y="280" width="120" height="60" as="geometry" />
        </mxCell>
        <mxCell id="4Gi6IG_BFEbsMWFQyG6_-10" value="&lt;span style=&quot;&quot;&gt;UserId&lt;/span&gt;" style="text;html=1;align=center;verticalAlign=middle;resizable=0;points=[];autosize=1;strokeColor=none;fillColor=none;" vertex="1" parent="1">
          <mxGeometry x="76" y="280" width="60" height="30" as="geometry" />
        </mxCell>
        <mxCell id="4Gi6IG_BFEbsMWFQyG6_-13" value="Input params&amp;nbsp; : tenantid , Subtenantid,&lt;br&gt;UserId ," style="rounded=0;whiteSpace=wrap;html=1;" vertex="1" parent="1">
          <mxGeometry x="100" y="400" width="180" height="60" as="geometry" />
        </mxCell>
        <mxCell id="4Gi6IG_BFEbsMWFQyG6_-16" value="Call" style="text;html=1;align=center;verticalAlign=middle;resizable=0;points=[];autosize=1;strokeColor=none;fillColor=none;" vertex="1" parent="1">
          <mxGeometry x="280" y="225" width="40" height="30" as="geometry" />
        </mxCell>
        <mxCell id="4Gi6IG_BFEbsMWFQyG6_-20" value="Input params&amp;nbsp; : tenantid , Subtenantid,&lt;br&gt;UserId ," style="rounded=0;whiteSpace=wrap;html=1;" vertex="1" parent="1">
          <mxGeometry x="340" y="200" width="145" height="60" as="geometry" />
        </mxCell>
        <mxCell id="4Gi6IG_BFEbsMWFQyG6_-23" value="Output Param :grade,boards,exams,&lt;br&gt;stream" style="rounded=0;whiteSpace=wrap;html=1;" vertex="1" parent="1">
          <mxGeometry x="585" y="190" width="145" height="60" as="geometry" />
        </mxCell>
        <mxCell id="4Gi6IG_BFEbsMWFQyG6_-50" style="edgeStyle=orthogonalEdgeStyle;rounded=0;orthogonalLoop=1;jettySize=auto;html=1;exitX=0.5;exitY=0.5;exitDx=0;exitDy=0;exitPerimeter=0;entryX=0;entryY=0.5;entryDx=0;entryDy=0;" edge="1" parent="1" source="4Gi6IG_BFEbsMWFQyG6_-41" target="4Gi6IG_BFEbsMWFQyG6_-49">
          <mxGeometry relative="1" as="geometry" />
        </mxCell>
        <mxCell id="4Gi6IG_BFEbsMWFQyG6_-41" value="Student" style="shape=umlActor;verticalLabelPosition=bottom;verticalAlign=top;html=1;outlineConnect=0;" vertex="1" parent="1">
          <mxGeometry x="40" y="931" width="30" height="60" as="geometry" />
        </mxCell>
        <mxCell id="4Gi6IG_BFEbsMWFQyG6_-46" value="MDM" style="rounded=1;whiteSpace=wrap;html=1;fillColor=#f8cecc;strokeColor=#b85450;" vertex="1" parent="1">
          <mxGeometry x="400" y="720" width="120" height="60" as="geometry" />
        </mxCell>
        <mxCell id="4Gi6IG_BFEbsMWFQyG6_-56" style="edgeStyle=orthogonalEdgeStyle;rounded=0;orthogonalLoop=1;jettySize=auto;html=1;exitX=0.5;exitY=1;exitDx=0;exitDy=0;" edge="1" parent="1" source="4Gi6IG_BFEbsMWFQyG6_-47">
          <mxGeometry relative="1" as="geometry">
            <mxPoint x="247" y="790" as="sourcePoint" />
            <mxPoint x="320" y="940" as="targetPoint" />
          </mxGeometry>
        </mxCell>
        <mxCell id="4Gi6IG_BFEbsMWFQyG6_-47" value="UAM" style="rounded=1;whiteSpace=wrap;html=1;fillColor=#dae8fc;strokeColor=#6c8ebf;" vertex="1" parent="1">
          <mxGeometry x="187" y="720" width="120" height="60" as="geometry" />
        </mxCell>
        <mxCell id="4Gi6IG_BFEbsMWFQyG6_-52" style="edgeStyle=orthogonalEdgeStyle;rounded=0;orthogonalLoop=1;jettySize=auto;html=1;exitX=0.5;exitY=0;exitDx=0;exitDy=0;" edge="1" parent="1">
          <mxGeometry relative="1" as="geometry">
            <mxPoint x="216" y="930" as="sourcePoint" />
            <mxPoint x="216" y="784" as="targetPoint" />
          </mxGeometry>
        </mxCell>
        <mxCell id="4Gi6IG_BFEbsMWFQyG6_-49" value="Authentication" style="ellipse;whiteSpace=wrap;html=1;" vertex="1" parent="1">
          <mxGeometry x="171" y="936" width="90" height="50" as="geometry" />
        </mxCell>
        <mxCell id="4Gi6IG_BFEbsMWFQyG6_-53" value="" style="shape=flexArrow;endArrow=classic;startArrow=classic;html=1;rounded=0;exitX=1;exitY=1;exitDx=0;exitDy=0;fillColor=#e1d5e7;strokeColor=#9673a6;" edge="1" parent="1">
          <mxGeometry width="100" height="100" relative="1" as="geometry">
            <mxPoint x="314" y="751" as="sourcePoint" />
            <mxPoint x="394" y="751" as="targetPoint" />
          </mxGeometry>
        </mxCell>
        <mxCell id="4Gi6IG_BFEbsMWFQyG6_-54" value="UserID .&lt;br&gt;tenantId.&lt;br&gt;subtenantid" style="text;html=1;align=center;verticalAlign=middle;resizable=0;points=[];autosize=1;strokeColor=none;fillColor=none;" vertex="1" parent="1">
          <mxGeometry x="136" y="819" width="90" height="60" as="geometry" />
        </mxCell>
        <mxCell id="4Gi6IG_BFEbsMWFQyG6_-57" value="User&lt;br&gt;&amp;nbsp;Specific Data" style="text;html=1;align=center;verticalAlign=middle;resizable=0;points=[];autosize=1;strokeColor=none;fillColor=none;" vertex="1" parent="1">
          <mxGeometry x="310" y="870" width="100" height="40" as="geometry" />
        </mxCell>
        <mxCell id="4Gi6IG_BFEbsMWFQyG6_-61" style="edgeStyle=orthogonalEdgeStyle;rounded=0;orthogonalLoop=1;jettySize=auto;html=1;exitX=1;exitY=0.5;exitDx=0;exitDy=0;" edge="1" parent="1" source="4Gi6IG_BFEbsMWFQyG6_-58" target="4Gi6IG_BFEbsMWFQyG6_-60">
          <mxGeometry relative="1" as="geometry" />
        </mxCell>
        <mxCell id="4Gi6IG_BFEbsMWFQyG6_-106" style="edgeStyle=none;rounded=0;orthogonalLoop=1;jettySize=auto;html=1;exitX=1;exitY=0;exitDx=0;exitDy=0;entryX=0;entryY=1;entryDx=0;entryDy=0;strokeColor=#000000;startArrow=classic;startFill=1;endArrow=block;endFill=1;fillColor=default;" edge="1" parent="1" source="4Gi6IG_BFEbsMWFQyG6_-58" target="4Gi6IG_BFEbsMWFQyG6_-103">
          <mxGeometry relative="1" as="geometry" />
        </mxCell>
        <mxCell id="4Gi6IG_BFEbsMWFQyG6_-58" value="Local/App Cache&amp;nbsp;" style="rounded=0;whiteSpace=wrap;html=1;" vertex="1" parent="1">
          <mxGeometry x="290" y="936" width="120" height="60" as="geometry" />
        </mxCell>
        <mxCell id="4Gi6IG_BFEbsMWFQyG6_-63" style="edgeStyle=orthogonalEdgeStyle;rounded=0;orthogonalLoop=1;jettySize=auto;html=1;exitX=1;exitY=0.5;exitDx=0;exitDy=0;" edge="1" parent="1" source="4Gi6IG_BFEbsMWFQyG6_-60">
          <mxGeometry relative="1" as="geometry">
            <mxPoint x="750" y="980" as="targetPoint" />
          </mxGeometry>
        </mxCell>
        <mxCell id="4Gi6IG_BFEbsMWFQyG6_-108" style="edgeStyle=none;rounded=0;orthogonalLoop=1;jettySize=auto;html=1;exitX=1;exitY=0.25;exitDx=0;exitDy=0;strokeColor=#000000;startArrow=classic;startFill=1;endArrow=block;endFill=1;fillColor=default;entryX=0;entryY=0.25;entryDx=0;entryDy=0;" edge="1" parent="1" source="4Gi6IG_BFEbsMWFQyG6_-60" target="4Gi6IG_BFEbsMWFQyG6_-67">
          <mxGeometry relative="1" as="geometry" />
        </mxCell>
        <mxCell id="4Gi6IG_BFEbsMWFQyG6_-118" style="edgeStyle=none;rounded=0;orthogonalLoop=1;jettySize=auto;html=1;exitX=0;exitY=1;exitDx=0;exitDy=0;strokeColor=#000000;startArrow=none;startFill=0;endArrow=classic;endFill=1;fillColor=default;shape=flexArrow;" edge="1" parent="1" source="4Gi6IG_BFEbsMWFQyG6_-60">
          <mxGeometry relative="1" as="geometry">
            <mxPoint x="290" y="1170" as="targetPoint" />
          </mxGeometry>
        </mxCell>
        <mxCell id="4Gi6IG_BFEbsMWFQyG6_-60" value="Self Learn 2.1&lt;br&gt;" style="rounded=0;whiteSpace=wrap;html=1;" vertex="1" parent="1">
          <mxGeometry x="550" y="936" width="120" height="60" as="geometry" />
        </mxCell>
        <mxCell id="4Gi6IG_BFEbsMWFQyG6_-66" style="edgeStyle=orthogonalEdgeStyle;rounded=0;orthogonalLoop=1;jettySize=auto;html=1;exitX=1;exitY=0.5;exitDx=0;exitDy=0;entryX=0.5;entryY=1;entryDx=0;entryDy=0;" edge="1" parent="1" source="4Gi6IG_BFEbsMWFQyG6_-64" target="4Gi6IG_BFEbsMWFQyG6_-68">
          <mxGeometry relative="1" as="geometry">
            <mxPoint x="910" y="820" as="targetPoint" />
          </mxGeometry>
        </mxCell>
        <mxCell id="4Gi6IG_BFEbsMWFQyG6_-77" style="rounded=0;orthogonalLoop=1;jettySize=auto;html=1;exitX=0.946;exitY=0.565;exitDx=0;exitDy=0;exitPerimeter=0;" edge="1" parent="1" source="4Gi6IG_BFEbsMWFQyG6_-64">
          <mxGeometry relative="1" as="geometry">
            <mxPoint x="990" y="1000" as="targetPoint" />
          </mxGeometry>
        </mxCell>
        <mxCell id="4Gi6IG_BFEbsMWFQyG6_-64" value="Select SL" style="rhombus;whiteSpace=wrap;html=1;" vertex="1" parent="1">
          <mxGeometry x="750" y="936" width="80" height="80" as="geometry" />
        </mxCell>
        <mxCell id="4Gi6IG_BFEbsMWFQyG6_-92" style="edgeStyle=none;shape=flexArrow;rounded=0;orthogonalLoop=1;jettySize=auto;html=1;exitX=1;exitY=0.5;exitDx=0;exitDy=0;strokeColor=#000000;fillColor=default;dashed=1;" edge="1" parent="1" source="4Gi6IG_BFEbsMWFQyG6_-67" target="4Gi6IG_BFEbsMWFQyG6_-91">
          <mxGeometry relative="1" as="geometry" />
        </mxCell>
        <mxCell id="4Gi6IG_BFEbsMWFQyG6_-113" style="edgeStyle=none;rounded=0;orthogonalLoop=1;jettySize=auto;html=1;exitX=0;exitY=1;exitDx=0;exitDy=0;entryX=0.75;entryY=0;entryDx=0;entryDy=0;strokeColor=#000000;startArrow=none;startFill=0;endArrow=classic;endFill=1;fillColor=default;" edge="1" parent="1" source="4Gi6IG_BFEbsMWFQyG6_-67" target="4Gi6IG_BFEbsMWFQyG6_-110">
          <mxGeometry relative="1" as="geometry" />
        </mxCell>
        <mxCell id="4Gi6IG_BFEbsMWFQyG6_-67" value="Subject Listing" style="rounded=1;whiteSpace=wrap;html=1;fillColor=#f8cecc;strokeColor=#b85450;" vertex="1" parent="1">
          <mxGeometry x="990" y="870" width="120" height="60" as="geometry" />
        </mxCell>
        <mxCell id="4Gi6IG_BFEbsMWFQyG6_-68" value="CMS" style="rounded=1;whiteSpace=wrap;html=1;fillColor=#fff2cc;strokeColor=#d6b656;" vertex="1" parent="1">
          <mxGeometry x="855" y="710" width="185" height="70" as="geometry" />
        </mxCell>
        <mxCell id="4Gi6IG_BFEbsMWFQyG6_-70" value="userId,&lt;br&gt;tenantId,&lt;br&gt;subtenantId,&lt;br&gt;examId,&lt;br&gt;gradeId" style="text;html=1;align=center;verticalAlign=middle;resizable=0;points=[];autosize=1;strokeColor=none;fillColor=none;" vertex="1" parent="1">
          <mxGeometry x="870" y="789" width="90" height="90" as="geometry" />
        </mxCell>
        <mxCell id="4Gi6IG_BFEbsMWFQyG6_-84" style="edgeStyle=orthogonalEdgeStyle;rounded=0;orthogonalLoop=1;jettySize=auto;html=1;exitX=1;exitY=0.5;exitDx=0;exitDy=0;entryX=1;entryY=0.25;entryDx=0;entryDy=0;" edge="1" parent="1" source="4Gi6IG_BFEbsMWFQyG6_-78" target="4Gi6IG_BFEbsMWFQyG6_-68">
          <mxGeometry relative="1" as="geometry">
            <Array as="points">
              <mxPoint x="1160" y="990" />
              <mxPoint x="1160" y="735" />
            </Array>
          </mxGeometry>
        </mxCell>
        <mxCell id="4Gi6IG_BFEbsMWFQyG6_-130" style="edgeStyle=none;rounded=0;orthogonalLoop=1;jettySize=auto;html=1;exitX=0;exitY=0.75;exitDx=0;exitDy=0;entryX=1;entryY=0.25;entryDx=0;entryDy=0;strokeColor=#000000;startArrow=none;startFill=0;endArrow=classic;endFill=1;fillColor=default;" edge="1" parent="1" source="4Gi6IG_BFEbsMWFQyG6_-78" target="4Gi6IG_BFEbsMWFQyG6_-110">
          <mxGeometry relative="1" as="geometry" />
        </mxCell>
        <mxCell id="4Gi6IG_BFEbsMWFQyG6_-78" value="Recommended PL" style="rounded=1;whiteSpace=wrap;html=1;fillColor=#fff2cc;strokeColor=#d6b656;" vertex="1" parent="1">
          <mxGeometry x="990" y="970" width="120" height="60" as="geometry" />
        </mxCell>
        <mxCell id="4Gi6IG_BFEbsMWFQyG6_-79" style="rounded=0;orthogonalLoop=1;jettySize=auto;html=1;exitX=0.877;exitY=0.669;exitDx=0;exitDy=0;exitPerimeter=0;entryX=-0.008;entryY=0.58;entryDx=0;entryDy=0;entryPerimeter=0;" edge="1" parent="1" source="4Gi6IG_BFEbsMWFQyG6_-64" target="4Gi6IG_BFEbsMWFQyG6_-80">
          <mxGeometry relative="1" as="geometry">
            <mxPoint x="845" y="1066" as="sourcePoint" />
            <mxPoint x="995" y="1100" as="targetPoint" />
          </mxGeometry>
        </mxCell>
        <mxCell id="4Gi6IG_BFEbsMWFQyG6_-85" style="edgeStyle=orthogonalEdgeStyle;rounded=0;orthogonalLoop=1;jettySize=auto;html=1;entryX=0.892;entryY=0;entryDx=0;entryDy=0;entryPerimeter=0;exitX=1;exitY=0.25;exitDx=0;exitDy=0;" edge="1" parent="1" source="4Gi6IG_BFEbsMWFQyG6_-80">
          <mxGeometry relative="1" as="geometry">
            <mxPoint x="1130" y="1070" as="sourcePoint" />
            <mxPoint x="1030.0200000000002" y="710" as="targetPoint" />
            <Array as="points">
              <mxPoint x="1110" y="1080" />
              <mxPoint x="1260" y="1080" />
              <mxPoint x="1260" y="690" />
              <mxPoint x="1030" y="690" />
            </Array>
          </mxGeometry>
        </mxCell>
        <mxCell id="4Gi6IG_BFEbsMWFQyG6_-80" value="Trending PL" style="rounded=1;whiteSpace=wrap;html=1;fillColor=#fff2cc;strokeColor=#d6b656;" vertex="1" parent="1">
          <mxGeometry x="990" y="1050" width="120" height="60" as="geometry" />
        </mxCell>
        <mxCell id="4Gi6IG_BFEbsMWFQyG6_-81" style="rounded=0;orthogonalLoop=1;jettySize=auto;html=1;exitX=1;exitY=1;exitDx=0;exitDy=0;entryX=0;entryY=0.5;entryDx=0;entryDy=0;" edge="1" parent="1" source="4Gi6IG_BFEbsMWFQyG6_-64" target="4Gi6IG_BFEbsMWFQyG6_-82">
          <mxGeometry relative="1" as="geometry">
            <mxPoint x="840" y="1166" as="sourcePoint" />
            <mxPoint x="990" y="1200" as="targetPoint" />
          </mxGeometry>
        </mxCell>
        <mxCell id="4Gi6IG_BFEbsMWFQyG6_-86" style="edgeStyle=orthogonalEdgeStyle;rounded=0;orthogonalLoop=1;jettySize=auto;html=1;exitX=1;exitY=0.5;exitDx=0;exitDy=0;" edge="1" parent="1" source="4Gi6IG_BFEbsMWFQyG6_-82">
          <mxGeometry relative="1" as="geometry">
            <mxPoint x="1160" y="1170" as="sourcePoint" />
            <mxPoint x="1010" y="710" as="targetPoint" />
            <Array as="points">
              <mxPoint x="1280" y="1170" />
              <mxPoint x="1280" y="660" />
              <mxPoint x="1010" y="660" />
            </Array>
          </mxGeometry>
        </mxCell>
        <mxCell id="4Gi6IG_BFEbsMWFQyG6_-82" value="Puzzles PL" style="rounded=1;whiteSpace=wrap;html=1;fillColor=#fff2cc;strokeColor=#d6b656;" vertex="1" parent="1">
          <mxGeometry x="990" y="1140" width="120" height="60" as="geometry" />
        </mxCell>
        <mxCell id="4Gi6IG_BFEbsMWFQyG6_-94" style="edgeStyle=none;shape=flexArrow;rounded=0;orthogonalLoop=1;jettySize=auto;html=1;strokeColor=#000000;fillColor=default;" edge="1" parent="1" source="4Gi6IG_BFEbsMWFQyG6_-91" target="4Gi6IG_BFEbsMWFQyG6_-93">
          <mxGeometry relative="1" as="geometry" />
        </mxCell>
        <mxCell id="4Gi6IG_BFEbsMWFQyG6_-97" style="edgeStyle=none;rounded=0;orthogonalLoop=1;jettySize=auto;html=1;entryX=1.024;entryY=0.131;entryDx=0;entryDy=0;entryPerimeter=0;strokeColor=#000000;fillColor=default;endArrow=block;endFill=1;startArrow=classic;startFill=1;" edge="1" parent="1" source="4Gi6IG_BFEbsMWFQyG6_-91" target="4Gi6IG_BFEbsMWFQyG6_-68">
          <mxGeometry relative="1" as="geometry">
            <Array as="points">
              <mxPoint x="1410" y="720" />
              <mxPoint x="1410" y="640" />
            </Array>
          </mxGeometry>
        </mxCell>
        <mxCell id="4Gi6IG_BFEbsMWFQyG6_-91" value="Chapters" style="rounded=1;whiteSpace=wrap;html=1;fillColor=#fff2cc;strokeColor=#d6b656;" vertex="1" parent="1">
          <mxGeometry x="1350" y="870" width="120" height="60" as="geometry" />
        </mxCell>
        <mxCell id="4Gi6IG_BFEbsMWFQyG6_-123" style="edgeStyle=none;rounded=0;orthogonalLoop=1;jettySize=auto;html=1;exitX=1;exitY=0.75;exitDx=0;exitDy=0;strokeColor=#000000;startArrow=none;startFill=0;endArrow=classic;endFill=1;fillColor=default;" edge="1" parent="1" source="4Gi6IG_BFEbsMWFQyG6_-93" target="4Gi6IG_BFEbsMWFQyG6_-122">
          <mxGeometry relative="1" as="geometry" />
        </mxCell>
        <mxCell id="4Gi6IG_BFEbsMWFQyG6_-132" style="edgeStyle=none;rounded=0;orthogonalLoop=1;jettySize=auto;html=1;exitX=0;exitY=1;exitDx=0;exitDy=0;strokeColor=#000000;startArrow=none;startFill=0;endArrow=classic;endFill=1;fillColor=default;" edge="1" parent="1" source="4Gi6IG_BFEbsMWFQyG6_-93" target="4Gi6IG_BFEbsMWFQyG6_-131">
          <mxGeometry relative="1" as="geometry" />
        </mxCell>
        <mxCell id="4Gi6IG_BFEbsMWFQyG6_-134" style="edgeStyle=none;rounded=0;orthogonalLoop=1;jettySize=auto;html=1;exitX=0.5;exitY=1;exitDx=0;exitDy=0;strokeColor=#000000;startArrow=none;startFill=0;endArrow=classic;endFill=1;fillColor=default;" edge="1" parent="1" source="4Gi6IG_BFEbsMWFQyG6_-93" target="4Gi6IG_BFEbsMWFQyG6_-133">
          <mxGeometry relative="1" as="geometry" />
        </mxCell>
        <mxCell id="4Gi6IG_BFEbsMWFQyG6_-136" style="edgeStyle=none;rounded=0;orthogonalLoop=1;jettySize=auto;html=1;exitX=0.75;exitY=1;exitDx=0;exitDy=0;strokeColor=#000000;startArrow=none;startFill=0;endArrow=classic;endFill=1;fillColor=default;" edge="1" parent="1" source="4Gi6IG_BFEbsMWFQyG6_-93" target="4Gi6IG_BFEbsMWFQyG6_-135">
          <mxGeometry relative="1" as="geometry" />
        </mxCell>
        <mxCell id="4Gi6IG_BFEbsMWFQyG6_-93" value="Topics" style="rounded=1;whiteSpace=wrap;html=1;fillColor=#fff2cc;strokeColor=#d6b656;" vertex="1" parent="1">
          <mxGeometry x="1430" y="986" width="120" height="60" as="geometry" />
        </mxCell>
        <mxCell id="4Gi6IG_BFEbsMWFQyG6_-98" value="get chapters level info" style="text;html=1;align=center;verticalAlign=middle;resizable=0;points=[];autosize=1;strokeColor=none;fillColor=none;rotation=-90;" vertex="1" parent="1">
          <mxGeometry x="1351" y="750" width="140" height="30" as="geometry" />
        </mxCell>
        <mxCell id="4Gi6IG_BFEbsMWFQyG6_-99" value="Call CMS with Subject ID ,&lt;br&gt;gradeId,userId,tenantId,subtenantid" style="text;html=1;align=center;verticalAlign=middle;resizable=0;points=[];autosize=1;strokeColor=none;fillColor=none;rotation=-90;" vertex="1" parent="1">
          <mxGeometry x="1280" y="750" width="210" height="40" as="geometry" />
        </mxCell>
        <mxCell id="4Gi6IG_BFEbsMWFQyG6_-104" value="" style="edgeStyle=none;rounded=0;orthogonalLoop=1;jettySize=auto;html=1;strokeColor=#000000;startArrow=classic;startFill=1;endArrow=block;endFill=1;fillColor=default;" edge="1" parent="1" source="4Gi6IG_BFEbsMWFQyG6_-100" target="4Gi6IG_BFEbsMWFQyG6_-103">
          <mxGeometry relative="1" as="geometry" />
        </mxCell>
        <mxCell id="4Gi6IG_BFEbsMWFQyG6_-100" value="IL GATEWAY" style="text;html=1;strokeColor=#6c8ebf;fillColor=#dae8fc;align=center;verticalAlign=middle;whiteSpace=wrap;rounded=0;" vertex="1" parent="1">
          <mxGeometry x="170" y="690" width="380" height="110" as="geometry" />
        </mxCell>
        <mxCell id="4Gi6IG_BFEbsMWFQyG6_-103" value="Data Store&lt;br&gt;Redis" style="whiteSpace=wrap;html=1;fillColor=#dae8fc;strokeColor=#6c8ebf;gradientColor=none;rounded=0;" vertex="1" parent="1">
          <mxGeometry x="650" y="720" width="120" height="60" as="geometry" />
        </mxCell>
        <mxCell id="4Gi6IG_BFEbsMWFQyG6_-105" style="edgeStyle=none;rounded=0;orthogonalLoop=1;jettySize=auto;html=1;exitX=0.5;exitY=0;exitDx=0;exitDy=0;strokeColor=#000000;startArrow=classic;startFill=1;endArrow=block;endFill=1;fillColor=default;" edge="1" parent="1" source="4Gi6IG_BFEbsMWFQyG6_-103" target="4Gi6IG_BFEbsMWFQyG6_-103">
          <mxGeometry relative="1" as="geometry" />
        </mxCell>
        <mxCell id="4Gi6IG_BFEbsMWFQyG6_-107" value="Should e in Sync" style="text;html=1;align=center;verticalAlign=middle;resizable=0;points=[];autosize=1;strokeColor=none;fillColor=none;rotation=-30;" vertex="1" parent="1">
          <mxGeometry x="485" y="855" width="110" height="30" as="geometry" />
        </mxCell>
        <mxCell id="4Gi6IG_BFEbsMWFQyG6_-112" value="" style="edgeStyle=none;rounded=0;orthogonalLoop=1;jettySize=auto;html=1;strokeColor=#000000;startArrow=classic;startFill=1;endArrow=block;endFill=1;fillColor=default;" edge="1" parent="1" source="4Gi6IG_BFEbsMWFQyG6_-110" target="4Gi6IG_BFEbsMWFQyG6_-111">
          <mxGeometry relative="1" as="geometry" />
        </mxCell>
        <mxCell id="4Gi6IG_BFEbsMWFQyG6_-110" value="Self learn BE" style="rounded=0;whiteSpace=wrap;html=1;" vertex="1" parent="1">
          <mxGeometry x="555" y="1200" width="120" height="60" as="geometry" />
        </mxCell>
        <mxCell id="4Gi6IG_BFEbsMWFQyG6_-111" value="State of Users&lt;br&gt;Stored" style="rounded=0;whiteSpace=wrap;html=1;" vertex="1" parent="1">
          <mxGeometry x="750" y="1200" width="120" height="60" as="geometry" />
        </mxCell>
        <mxCell id="4Gi6IG_BFEbsMWFQyG6_-114" value="Capture state of each user" style="text;html=1;align=center;verticalAlign=middle;resizable=0;points=[];autosize=1;strokeColor=none;fillColor=none;rotation=-35;" vertex="1" parent="1">
          <mxGeometry x="650" y="1100" width="160" height="30" as="geometry" />
        </mxCell>
        <mxCell id="4Gi6IG_BFEbsMWFQyG6_-120" style="edgeStyle=none;shape=flexArrow;rounded=0;orthogonalLoop=1;jettySize=auto;html=1;strokeColor=#000000;startArrow=none;startFill=0;endArrow=classic;endFill=1;fillColor=default;" edge="1" parent="1" source="4Gi6IG_BFEbsMWFQyG6_-115">
          <mxGeometry relative="1" as="geometry">
            <mxPoint x="300" y="1310" as="targetPoint" />
          </mxGeometry>
        </mxCell>
        <mxCell id="4Gi6IG_BFEbsMWFQyG6_-115" value="PUB sub EVENT Queue&amp;nbsp;" style="shape=cylinder3;whiteSpace=wrap;html=1;boundedLbl=1;backgroundOutline=1;size=15;rotation=90;" vertex="1" parent="1">
          <mxGeometry x="270" y="1050" width="60" height="310" as="geometry" />
        </mxCell>
        <mxCell id="4Gi6IG_BFEbsMWFQyG6_-121" value="Data Lake" style="rounded=1;whiteSpace=wrap;html=1;" vertex="1" parent="1">
          <mxGeometry x="240" y="1310" width="120" height="60" as="geometry" />
        </mxCell>
        <mxCell id="4Gi6IG_BFEbsMWFQyG6_-122" value="QB Practice Ques" style="rounded=1;whiteSpace=wrap;html=1;fillColor=#fff2cc;strokeColor=#d6b656;" vertex="1" parent="1">
          <mxGeometry x="1710" y="1115" width="120" height="60" as="geometry" />
        </mxCell>
        <mxCell id="4Gi6IG_BFEbsMWFQyG6_-131" value="Flashcards" style="rounded=1;whiteSpace=wrap;html=1;fillColor=#fff2cc;strokeColor=#d6b656;" vertex="1" parent="1">
          <mxGeometry x="1340" y="1070" width="120" height="60" as="geometry" />
        </mxCell>
        <mxCell id="4Gi6IG_BFEbsMWFQyG6_-133" value="Videos" style="rounded=1;whiteSpace=wrap;html=1;fillColor=#fff2cc;strokeColor=#d6b656;" vertex="1" parent="1">
          <mxGeometry x="1470" y="1115" width="120" height="60" as="geometry" />
        </mxCell>
        <mxCell id="4Gi6IG_BFEbsMWFQyG6_-135" value="Other Assets" style="rounded=1;whiteSpace=wrap;html=1;fillColor=#fff2cc;strokeColor=#d6b656;" vertex="1" parent="1">
          <mxGeometry x="1610" y="1200" width="120" height="60" as="geometry" />
        </mxCell>
        <mxCell id="4Gi6IG_BFEbsMWFQyG6_-137" value="Evenets of all assets&amp;nbsp;" style="text;html=1;align=center;verticalAlign=middle;resizable=0;points=[];autosize=1;strokeColor=none;fillColor=none;rotation=-35;" vertex="1" parent="1">
          <mxGeometry x="330" y="1050" width="140" height="30" as="geometry" />
        </mxCell>
        <mxCell id="4Gi6IG_BFEbsMWFQyG6_-138" value="Assets States.ex videos,flashcards etc" style="text;html=1;align=center;verticalAlign=middle;resizable=0;points=[];autosize=1;strokeColor=none;fillColor=none;" vertex="1" parent="1">
          <mxGeometry x="695" y="1270" width="230" height="30" as="geometry" />
        </mxCell>
        <mxCell id="4Gi6IG_BFEbsMWFQyG6_-139" value="QB&amp;nbsp;" style="text;html=1;align=center;verticalAlign=middle;resizable=0;points=[];autosize=1;strokeColor=none;fillColor=none;" vertex="1" parent="1">
          <mxGeometry x="1750" y="1085" width="40" height="30" as="geometry" />
        </mxCell>
      </root>
    </mxGraphModel>
  </diagram>
</mxfile>
